<svg id="Group_11" data-name="Group 11" xmlns="http://www.w3.org/2000/svg" width="19.566" height="19.362" viewBox="0 0 19.566 19.362">
  <path id="Path_234" data-name="Path 234" d="M930.337,925.755l-.106.238a6.824,6.824,0,0,1-6.791,5.237,7.016,7.016,0,0,1-4.566-1.777l1.584-1.107-5.843-2.717.553,6.268,1.331-.9a9.745,9.745,0,0,0,6.943,2.875,9.452,9.452,0,0,0,9.6-7.641l.13-.478Z" transform="translate(-913.609 -914.512)" fill="#703a88"/>
  <path id="Path_235" data-name="Path 235" d="M916.5,922.158a6.978,6.978,0,0,1,11.359-3.68l-1.584,1.074,5.841,2.352-.554-6.11-1.328.981a9.825,9.825,0,0,0-16.548,5.124l-.13.788h2.837Z" transform="translate(-913.557 -913.941)" fill="#703a88"/>
</svg>
