<svg id="Group_10" data-name="Group 10" xmlns="http://www.w3.org/2000/svg" width="28.498" height="28.5" viewBox="0 0 28.498 28.5">
  <path id="Path_523" data-name="Path 523" d="M459.67,705.63a8.481,8.481,0,1,0,8.481-8.482A8.491,8.491,0,0,0,459.67,705.63Zm14.39-.516a5.931,5.931,0,1,1-6.424-5.392A5.931,5.931,0,0,1,474.06,705.113Z" transform="translate(-453.902 -691.379)" fill="#703a88"/>
  <path id="Path_524" data-name="Path 524" d="M471.111,701.647l1.4-.054a.865.865,0,0,0,.75-.6l.461-2.22a.867.867,0,0,0-.448-.847l-1.263-.611a1.059,1.059,0,0,1-.543-.853s0-.163-.035-.546l-.011-.132c-.018-.143.193-.4.469-.579l1.189-.751a.866.866,0,0,0,.351-.892l-.7-2.153a.865.865,0,0,0-.812-.509l-1.406.1a1,1,0,0,1-.86-.4c-.147-.243-.45-1.085-.3-1.374l.654-1.242a.863.863,0,0,0-.142-.947l-1.689-1.511a.864.864,0,0,0-.958-.036l-1.164.789a1,1,0,0,1-.941.087c-.247-.135-.933-.717-.946-1.043l-.055-1.4a.864.864,0,0,0-.6-.75l-2.219-.462a.863.863,0,0,0-.847.447l-.612,1.264a1.057,1.057,0,0,1-.853.543s-.164,0-.546.035l-.133.013c-.143.018-.4-.194-.577-.47l-.751-1.191a.865.865,0,0,0-.891-.351l-2.155.7a.863.863,0,0,0-.509.811l.1,1.406a1,1,0,0,1-.4.86c-.241.147-1.083.451-1.372.3l-1.244-.654a.863.863,0,0,0-.947.142l-1.511,1.69a.864.864,0,0,0-.035.957l.79,1.164a1,1,0,0,1,.086.94c-.136.247-.718.932-1.044.946l-1.4.054a.865.865,0,0,0-.749.6l-.461,2.22a.866.866,0,0,0,.448.847l1.265.612a1.056,1.056,0,0,1,.542.853s0,.164.036.546l.012.133c.018.143-.193.4-.47.578l-1.191.751a.864.864,0,0,0-.351.891l.7,2.153a.865.865,0,0,0,.811.509l1.405-.1a1,1,0,0,1,.86.4c.147.241.451,1.085.3,1.374l-.654,1.242a.863.863,0,0,0,.142.947l1.69,1.512a.865.865,0,0,0,.957.036l1.164-.789a1,1,0,0,1,.94-.086c.247.136.932.717.945,1.043l.055,1.4a.865.865,0,0,0,.6.75l2.219.461a.866.866,0,0,0,.847-.448l.613-1.264a1.061,1.061,0,0,1,.853-.543s.163,0,.546-.034l.132-.011c.143-.019.4.192.578.469l.751,1.191a.863.863,0,0,0,.891.352l2.154-.7a.864.864,0,0,0,.509-.811l-.1-1.406a1.007,1.007,0,0,1,.4-.86c.241-.147,1.084-.45,1.373-.3l1.243.653a.862.862,0,0,0,.947-.142l1.511-1.69a.864.864,0,0,0,.036-.957l-.789-1.163a1,1,0,0,1-.087-.94C470.2,702.346,470.784,701.659,471.111,701.647Zm-11.63,4.976a9.664,9.664,0,1,1,9.664-9.664A9.675,9.675,0,0,1,459.481,706.623Z" transform="translate(-445.232 -682.708)" fill="#703a88"/>
</svg>
